<svg width="900" height="900" viewBox="0 0 900 900" fill="none" xmlns="http://www.w3.org/2000/svg" role="img" aria-labelledby="title desc">
  <title id="title">Prüfservice Koblenz Logo</title>
  <desc id="desc">Rundes Logo mit Schriftzug Prüfservice Koblenz, Leiter, Regal, Hubwagen und Schutzschild mit Haken.</desc>
  <rect width="900" height="900" rx="80" fill="white"/>
  <path d="M154 315C78 428 91 589 188 688" stroke="#3f4143" stroke-width="22" stroke-linecap="round"/>
  <path d="M746 315C822 428 809 589 712 688" stroke="#3f4143" stroke-width="22" stroke-linecap="round"/>
  <path d="M168 344C99 446 111 586 204 662" stroke="#155489" stroke-width="10" stroke-linecap="round"/>
  <path d="M732 344C801 446 789 586 696 662" stroke="#155489" stroke-width="10" stroke-linecap="round"/>
  <text x="450" y="195" text-anchor="middle" font-family="Arial, Helvetica, sans-serif" font-weight="900" font-size="74" letter-spacing="5" fill="#c41f32">PRÜFSERVICE</text>
  <text x="450" y="760" text-anchor="middle" font-family="Arial, Helvetica, sans-serif" font-weight="900" font-size="70" letter-spacing="8" fill="#155489">KOBLENZ</text>
  <text x="194" y="300" text-anchor="middle" font-size="42" fill="#9ea1a3">★</text>
  <text x="706" y="300" text-anchor="middle" font-size="42" fill="#9ea1a3">★</text>

  <g transform="translate(225 277) rotate(10)">
    <rect x="34" y="0" width="22" height="265" rx="9" fill="#444"/>
    <rect x="142" y="0" width="22" height="265" rx="9" fill="#444"/>
    <rect x="48" y="45" width="108" height="19" rx="6" fill="#444"/>
    <rect x="44" y="105" width="116" height="19" rx="6" fill="#444"/>
    <rect x="40" y="165" width="124" height="19" rx="6" fill="#444"/>
    <ellipse cx="99" cy="278" rx="106" ry="16" fill="url(#shadow)"/>
  </g>

  <g transform="translate(492 315)">
    <rect x="0" y="0" width="18" height="255" rx="6" fill="#155489"/>
    <rect x="132" y="-15" width="18" height="270" rx="6" fill="#155489"/>
    <rect x="-10" y="24" width="170" height="18" rx="6" transform="rotate(-3 -10 24)" fill="#155489"/>
    <rect x="-10" y="96" width="170" height="18" rx="6" fill="#155489"/>
    <rect x="-10" y="168" width="170" height="18" rx="6" fill="#155489"/>
    <rect x="26" y="52" width="44" height="44" rx="3" fill="#f5d12f"/>
    <rect x="84" y="52" width="44" height="44" rx="3" fill="#f5d12f"/>
    <rect x="37" y="64" width="18" height="12" fill="white" opacity=".8"/>
    <rect x="95" y="64" width="18" height="12" fill="white" opacity=".8"/>
    <rect x="34" y="188" width="58" height="48" rx="3" fill="#f5d12f"/>
  </g>

  <g transform="translate(622 448)">
    <path d="M92 143H29C14 143 5 130 10 116L42 34C46 23 56 16 68 16H92V143Z" fill="#f4a51c" stroke="#3f4143" stroke-width="8"/>
    <path d="M93 24V8C93 3 97 0 102 0C107 0 111 3 111 8V150" stroke="#262626" stroke-width="12" stroke-linecap="round"/>
    <path d="M108 14C147 18 165 36 165 63C165 86 151 100 128 100" stroke="#262626" stroke-width="8" fill="none"/>
    <circle cx="33" cy="145" r="14" fill="#333"/>
    <circle cx="95" cy="145" r="14" fill="#333"/>
    <circle cx="63" cy="41" r="4" fill="white"/>
  </g>

  <g transform="translate(343 445)">
    <path d="M107 0L226 35L204 217L107 280L10 217L-12 35L107 0Z" fill="white" stroke="#6a4e33" stroke-width="8"/>
    <path d="M107 20L203 49L185 203L107 253L29 203L11 49L107 20Z" fill="#333"/>
    <path d="M11 49L107 20L107 119L22 125L11 49Z" fill="#d6202d"/>
    <path d="M107 20L203 49L184 113L107 119V20Z" fill="#f8f8f8"/>
    <path d="M41 137L92 188L223 34L251 58L94 238L8 158L41 137Z" fill="#40bf4a" stroke="white" stroke-width="16" stroke-linejoin="round"/>
    <path d="M41 137L92 188L223 34L251 58L94 238L8 158L41 137Z" fill="#40bf4a" stroke="#2b6f31" stroke-width="5" stroke-linejoin="round"/>
  </g>
  <defs>
    <radialGradient id="shadow" cx="0" cy="0" r="1" gradientUnits="userSpaceOnUse" gradientTransform="translate(99 278) scale(106 16)">
      <stop stop-color="#333" stop-opacity=".28"/>
      <stop offset="1" stop-color="#333" stop-opacity="0"/>
    </radialGradient>
  </defs>
</svg>
